<?xml version="1.0" encoding="UTF-8" standalone="no"?>
<svg
   id="svg-container"
   class="m-8"
   version="1.1"
   width="456.92313"
   height="180"
   sodipodi:docname="featured.svg"
   inkscape:version="1.4.2 (ebf0e940d0, 2025-05-08)"
   xmlns:inkscape="http://www.inkscape.org/namespaces/inkscape"
   xmlns:sodipodi="http://sodipodi.sourceforge.net/DTD/sodipodi-0.dtd"
   xmlns="http://www.w3.org/2000/svg"
   xmlns:svg="http://www.w3.org/2000/svg">
  <defs
     id="defs11" />
  <sodipodi:namedview
     id="namedview11"
     pagecolor="#ffffff"
     bordercolor="#000000"
     borderopacity="0.25"
     inkscape:showpageshadow="2"
     inkscape:pageopacity="0.0"
     inkscape:pagecheckerboard="0"
     inkscape:deskcolor="#d1d1d1"
     inkscape:zoom="1.968"
     inkscape:cx="162.60163"
     inkscape:cy="518.29268"
     inkscape:window-width="1902"
     inkscape:window-height="1030"
     inkscape:window-x="0"
     inkscape:window-y="0"
     inkscape:window-maximized="1"
     inkscape:current-layer="svg-container" />
  <g
     id="g11"
     transform="scale(0.91384628)">
    <path
       d="m 0,15.1515 c 83.333332,0 83.333332,166.66667 166.66666,166.66667"
       id="path1"
       style="fill:none;stroke:#ffb86c;stroke-width:15.1515" />
    <path
       d="m 0,181.81817 c 83.333332,0 83.333332,-166.66667 166.66666,-166.66667"
       stroke-width="30.303"
       stroke="#44475a"
       id="path2"
       style="fill:none" />
    <path
       d="m 0,181.81817 c 83.333332,0 83.333332,-166.66667 166.66666,-166.66667"
       id="path3"
       style="fill:none;stroke:#ffb86c;stroke-width:15.1515" />
    <path
       d="M 166.66666,15.1515 C 250,15.1515 250,181.81817 333.33333,181.81817"
       id="path4"
       style="fill:none;stroke:#ffb86c;stroke-width:15.1515" />
    <path
       d="M 166.66666,181.81817 C 250,181.81817 250,15.1515 333.33333,15.1515"
       stroke-width="30.303"
       stroke="#44475a"
       id="path5"
       style="fill:none" />
    <path
       d="M 166.66666,181.81817 C 250,181.81817 250,15.1515 333.33333,15.1515"
       id="path6"
       style="fill:none;stroke:#ffb86c;stroke-width:15.1515" />
    <path
       d="m 333.33333,15.1515 c 83.33333,0 83.33333,166.66667 166.66667,166.66667"
       id="path7"
       style="fill:none;stroke:#ffb86c;stroke-width:15.1515" />
    <path
       d="M 333.33333,181.81817 C 416.66666,181.81817 416.66666,15.1515 500,15.1515"
       stroke-width="30.303"
       stroke="#44475a"
       id="path8"
       style="fill:none" />
    <path
       d="M 333.33333,181.81817 C 416.66666,181.81817 416.66666,15.1515 500,15.1515"
       id="path9"
       style="fill:none;stroke:#ffb86c;stroke-width:15.1515" />
  </g>
</svg>
